# Blender v2.74 (sub 0) OBJ File: ''
# www.blender.org
mtllib cup.mtl
o Cylinder
v 0.000000 0.500000 0.500000
v 0.129400 0.500000 0.483000
v 0.250000 0.500000 0.433000
v 0.353600 0.500000 0.353600
v 0.433000 0.500000 0.250000
v 0.483000 0.500000 0.129400
v 0.500000 0.500000 0.000000
v 0.483000 0.500000 -0.129400
v 0.433000 0.500000 -0.250000
v 0.353600 0.500000 -0.353600
v 0.250000 0.500000 -0.433000
v 0.129400 0.500000 -0.483000
v 0.000000 0.500000 -0.500000
v -0.129400 0.500000 -0.483000
v -0.250000 0.500000 -0.433000
v -0.353600 0.500000 -0.353600
v -0.433000 0.500000 -0.250000
v -0.483000 0.500000 -0.129400
v -0.500000 0.500000 0.000000
v -0.483000 0.500000 0.129400
v -0.433000 0.500000 0.250000
v -0.353600 0.500000 0.353600
v -0.250000 0.500000 0.433000
v -0.129400 0.500000 0.483000
v 0.000000 -0.500000 0.500000
v 0.129400 -0.500000 0.483000
v 0.250000 -0.500000 0.433000
v 0.353600 -0.500000 0.353600
v 0.433000 -0.500000 0.250000
v 0.483000 -0.500000 0.129400
v 0.500000 -0.500000 0.000000
v 0.483000 -0.500000 -0.129400
v 0.433000 -0.500000 -0.250000
v 0.353600 -0.500000 -0.353600
v 0.250000 -0.500000 -0.433000
v 0.129400 -0.500000 -0.483000
v 0.000000 -0.500000 -0.500000
v -0.129400 -0.500000 -0.483000
v -0.250000 -0.500000 -0.433000
v -0.353600 -0.500000 -0.353600
v -0.433000 -0.500000 -0.250000
v -0.483000 -0.500000 -0.129400
v -0.500000 -0.500000 0.000000
v -0.483000 -0.500000 0.129400
v -0.433000 -0.500000 0.250000
v -0.353600 -0.500000 0.353600
v -0.250000 -0.500000 0.433000
v -0.129400 -0.500000 0.483000
v 0.000000 -0.400000 0.000000
v 0.000000 -0.500000 0.000000
v 0.103516 0.500000 0.386408
v 0.000000 0.500000 0.400000
v 0.200011 0.500000 0.346391
v 0.282889 0.500000 0.282889
v 0.346391 0.500000 0.200011
v 0.386408 0.500000 0.103516
v 0.400000 0.500000 0.000000
v 0.386408 0.500000 -0.103516
v 0.346391 0.500000 -0.200011
v 0.282889 0.500000 -0.282889
v 0.200011 0.500000 -0.346391
v 0.103516 0.500000 -0.386408
v 0.000000 0.500000 -0.400000
v -0.103516 0.500000 -0.386408
v -0.200011 0.500000 -0.346391
v -0.282889 0.500000 -0.282889
v -0.346391 0.500000 -0.200011
v -0.386408 0.500000 -0.103516
v -0.400000 0.500000 0.000000
v -0.386408 0.500000 0.103516
v -0.346391 0.500000 0.200011
v -0.282889 0.500000 0.282889
v -0.200011 0.500000 0.346391
v -0.103516 0.500000 0.386408
v 0.000000 -0.400000 0.400000
v 0.103516 -0.400000 0.386408
v 0.200011 -0.400000 0.346391
v 0.282889 -0.400000 0.282889
v 0.346391 -0.400000 0.200011
v 0.386408 -0.400000 0.103516
v 0.400000 -0.400000 0.000000
v 0.386408 -0.400000 -0.103516
v 0.346391 -0.400000 -0.200011
v 0.282889 -0.400000 -0.282889
v 0.200011 -0.400000 -0.346391
v 0.103516 -0.400000 -0.386408
v 0.000000 -0.400000 -0.400000
v -0.103516 -0.400000 -0.386408
v -0.200011 -0.400000 -0.346391
v -0.282889 -0.400000 -0.282889
v -0.346391 -0.400000 -0.200011
v -0.386408 -0.400000 -0.103516
v -0.400000 -0.400000 0.000000
v -0.386408 -0.400000 0.103516
v -0.346391 -0.400000 0.200011
v -0.282889 -0.400000 0.282889
v -0.200011 -0.400000 0.346391
v -0.103516 -0.400000 0.386408
v 0.000000 0.422700 0.500000
v 0.000000 0.328216 0.500000
v -0.034709 -0.400000 0.129563
v 0.000000 -0.249962 0.500000
v 0.000000 -0.389083 0.500000
v 0.129400 -0.391600 0.483000
v 0.129400 -0.256612 0.483000
v 0.129400 0.425701 0.483000
v 0.129400 0.325264 0.483000
v 0.026051 0.328216 0.698296
v 0.026051 0.422700 0.698296
v 0.155451 0.325264 0.681296
v 0.155451 0.425701 0.681296
v 0.026051 -0.389083 0.698296
v 0.026051 -0.249962 0.698296
v 0.155451 -0.391600 0.681296
v 0.155451 -0.256612 0.681296
v 0.029648 -0.383736 0.725672
v 0.028613 -0.246153 0.717794
v 0.032885 -0.368396 0.750311
v 0.030918 -0.235228 0.735343
v 0.035762 -0.344115 0.772212
v 0.032968 -0.217934 0.750942
v 0.038280 -0.311946 0.791376
v 0.034761 -0.195022 0.764590
v 0.040438 -0.272939 0.807802
v 0.036298 -0.167240 0.776289
v 0.042236 -0.228146 0.821490
v 0.037578 -0.135338 0.786039
v 0.043675 -0.178621 0.832441
v 0.038603 -0.100064 0.793838
v 0.044754 -0.125414 0.840653
v 0.039372 -0.062168 0.799687
v 0.045473 -0.069577 0.846129
v 0.039884 -0.022399 0.803587
v 0.045833 -0.012162 0.848866
v 0.040140 0.018493 0.805537
v 0.045833 0.045779 0.848866
v 0.040140 0.059760 0.805537
v 0.045473 0.103194 0.846129
v 0.039884 0.100653 0.803587
v 0.044754 0.159030 0.840653
v 0.039372 0.140422 0.799687
v 0.043675 0.212238 0.832441
v 0.038603 0.178318 0.793838
v 0.042236 0.261763 0.821490
v 0.037578 0.213591 0.786039
v 0.040438 0.306556 0.807802
v 0.036298 0.245494 0.776289
v 0.038280 0.345563 0.791376
v 0.034761 0.273276 0.764590
v 0.035762 0.377732 0.772212
v 0.032968 0.296188 0.750942
v 0.032885 0.402013 0.750311
v 0.030918 0.313482 0.735343
v 0.029648 0.417353 0.725672
v 0.028613 0.324407 0.717794
v 0.159072 -0.386217 0.708859
v 0.162331 -0.370773 0.733665
v 0.165228 -0.346327 0.755715
v 0.167763 -0.313938 0.775009
v 0.169935 -0.274666 0.791546
v 0.171746 -0.229570 0.805327
v 0.173194 -0.179707 0.816352
v 0.174281 -0.126138 0.824621
v 0.175005 -0.069922 0.830134
v 0.175367 -0.012117 0.832890
v 0.175367 0.046218 0.832890
v 0.175005 0.104023 0.830134
v 0.174281 0.160239 0.824621
v 0.173194 0.213808 0.816352
v 0.171746 0.263670 0.805327
v 0.169935 0.308767 0.791546
v 0.167763 0.348039 0.775009
v 0.165228 0.380428 0.755715
v 0.162331 0.404873 0.733665
v 0.159072 0.420317 0.708859
v 0.158029 -0.252779 0.700919
v 0.160349 -0.241784 0.718580
v 0.162412 -0.224380 0.734278
v 0.164216 -0.201321 0.748015
v 0.165763 -0.173361 0.759788
v 0.167052 -0.141254 0.769600
v 0.168083 -0.105755 0.777449
v 0.168857 -0.067617 0.783336
v 0.169372 -0.027593 0.787261
v 0.169630 0.013561 0.789223
v 0.169630 0.055092 0.789223
v 0.169372 0.096246 0.787261
v 0.168857 0.136269 0.783336
v 0.168083 0.174408 0.777449
v 0.167052 0.209907 0.769600
v 0.165763 0.242014 0.759788
v 0.164216 0.269973 0.748015
v 0.162412 0.293032 0.734278
v 0.160349 0.310436 0.718580
v 0.158029 0.321432 0.700919
vt 0.000000 1.000000
vt 0.000000 0.922700
vt 0.041667 0.925701
vt 0.041667 1.000000
vt 0.041667 0.825264
vt 0.041667 0.243388
vt 0.041667 0.108400
vt 0.041667 0.000000
vt 0.083333 0.000000
vt 0.083333 1.000000
vt 0.125000 0.000000
vt 0.125000 1.000000
vt 0.166667 0.000000
vt 0.166667 1.000000
vt 0.208333 0.000000
vt 0.208333 1.000000
vt 0.250000 0.000000
vt 0.250000 1.000000
vt 0.291667 0.000000
vt 0.291667 1.000000
vt 0.333333 0.000000
vt 0.333333 1.000000
vt 0.375000 0.000000
vt 0.375000 1.000000
vt 0.416667 0.000000
vt 0.416667 1.000000
vt 0.458333 0.000000
vt 0.458333 1.000000
vt 0.500000 0.000000
vt 0.500000 1.000000
vt 0.541667 0.000000
vt 0.541667 1.000000
vt 0.583333 0.000000
vt 0.583333 1.000000
vt 0.625000 0.000000
vt 0.625000 1.000000
vt 0.666667 0.000000
vt 0.666667 1.000000
vt 0.708333 0.000000
vt 0.708333 1.000000
vt 0.750000 0.000000
vt 0.750000 1.000000
vt 0.791667 0.000000
vt 0.791667 1.000000
vt 0.833333 0.000000
vt 0.833333 1.000000
vt 0.875000 0.000000
vt 0.875000 1.000000
vt 0.916667 0.000000
vt 0.916667 1.000000
vt 0.958333 0.000000
vt 0.958333 1.000000
vt 1.000000 0.000000
vt 1.000000 0.110917
vt 1.000000 0.250038
vt 1.000000 0.828216
vt 1.000000 0.922700
vt 1.000000 1.000000
vt 0.000000 0.000000
vt 0.321329 0.664700
vt 0.000000 0.828216
vt 0.000000 0.250038
vt 0.000000 0.110917
vn 0.000000 0.000000 1.000000
vn 0.258800 0.000000 0.965900
vn 0.258900 -0.000000 0.965900
vn 0.499900 0.000000 0.866100
vn 0.707100 0.000000 0.707100
vn 0.866100 0.000000 0.499900
vn 0.965900 0.000000 0.258800
vn 1.000000 0.000000 0.000000
vn 0.965900 0.000000 -0.258800
vn 0.866100 0.000000 -0.499900
vn 0.707100 0.000000 -0.707100
vn 0.499900 0.000000 -0.866100
vn 0.258800 0.000000 -0.965900
vn 0.000000 0.000000 -1.000000
vn -0.258800 0.000000 -0.965900
vn -0.499900 0.000000 -0.866100
vn -0.707100 0.000000 -0.707100
vn -0.866100 0.000000 -0.499900
vn -0.965900 0.000000 -0.258800
vn -1.000000 0.000000 0.000000
vn -0.965900 0.000000 0.258800
vn -0.866100 0.000000 0.499900
vn -0.707100 0.000000 0.707100
vn -0.499900 0.000000 0.866100
vn -0.258800 0.000000 0.965900
vn 0.000000 1.000000 0.000000
vn 0.000000 -1.000000 0.000000
vn -0.130200 0.000000 -0.991500
vn -0.383100 0.000000 -0.923700
vn -0.608200 0.000000 -0.793800
vn -0.793800 0.000000 -0.608200
vn -0.923700 0.000000 -0.383100
vn -0.991500 0.000000 -0.130200
vn -0.991500 0.000000 0.130200
vn -0.923700 0.000000 0.383100
vn -0.793800 0.000000 0.608200
vn -0.608200 0.000000 0.793800
vn -0.383100 0.000000 0.923700
vn -0.130200 0.000000 0.991500
vn 0.130200 0.000000 0.991500
vn 0.383100 0.000000 0.923700
vn 0.608200 0.000000 0.793800
vn 0.793800 0.000000 0.608200
vn 0.923700 0.000000 0.383100
vn 0.991500 0.000000 0.130200
vn 0.991500 0.000000 -0.130200
vn 0.923700 0.000000 -0.383100
vn 0.793800 0.000000 -0.608200
vn 0.608200 0.000000 -0.793800
vn 0.383100 0.000000 -0.923700
vn 0.130200 0.000000 -0.991500
vn -0.991500 0.000000 0.130300
vn -0.022400 -0.999700 0.002900
vn -0.034800 -0.995200 -0.091900
vn -0.034700 -0.995200 -0.091600
vn 0.991500 0.000000 -0.130300
vn -0.022800 0.999700 0.003000
vn -0.010200 0.995200 0.097800
vn -0.010300 0.995200 0.097500
vn -0.019100 -0.999800 0.002500
vn -0.006600 -0.995300 0.097100
vn -0.006600 -0.995200 0.097300
vn 0.050500 0.998700 -0.006600
vn 0.037800 0.994100 -0.101500
vn 0.037800 0.994200 -0.100900
vn 0.029300 -0.931400 0.362900
vn 0.067600 -0.769300 0.635300
vn 0.067600 -0.769400 0.635200
vn 0.091400 -0.596800 0.797200
vn 0.104800 -0.454500 0.884600
vn 0.104900 -0.453600 0.885000
vn 0.112500 -0.343000 0.932600
vn 0.112500 -0.343200 0.932500
vn 0.116900 -0.256500 0.959400
vn 0.116900 -0.256100 0.959600
vn 0.119600 -0.185600 0.975300
vn 0.119600 -0.185700 0.975300
vn 0.121200 -0.126300 0.984600
vn 0.121200 -0.126100 0.984600
vn 0.122000 -0.073300 0.989800
vn 0.122000 -0.073200 0.989800
vn 0.122400 -0.024000 0.992200
vn 0.122300 0.024100 0.992200
vn 0.122300 0.024000 0.992200
vn 0.121800 0.073300 0.989800
vn 0.121800 0.073200 0.989900
vn 0.120700 0.126000 0.984700
vn 0.118900 0.186000 0.975300
vn 0.118900 0.185600 0.975400
vn 0.116000 0.256300 0.959600
vn 0.111200 0.343100 0.932700
vn 0.103200 0.454200 0.884900
vn 0.103200 0.454100 0.885000
vn 0.089200 0.596800 0.797400
vn 0.064700 0.769300 0.635600
vn 0.064700 0.769300 0.635700
vn 0.025800 0.931400 0.363200
vn 0.025900 0.931300 0.363300
vn -0.000100 0.930500 -0.366400
vn -0.000100 0.930500 -0.366300
vn -0.043700 0.768800 -0.638000
vn -0.073200 0.596600 -0.799200
vn -0.091400 0.453900 -0.886400
vn -0.091400 0.453900 -0.886300
vn -0.102800 0.343100 -0.933600
vn -0.102800 0.343100 -0.933700
vn -0.110200 0.256300 -0.960300
vn -0.115300 0.185900 -0.975800
vn -0.115300 0.185800 -0.975800
vn -0.119100 0.126200 -0.984800
vn -0.119000 0.126400 -0.984800
vn -0.121900 0.073100 -0.989900
vn -0.121900 0.073500 -0.989800
vn -0.124100 0.023400 -0.992000
vn -0.124000 0.024600 -0.992000
vn -0.125800 -0.024100 -0.991800
vn -0.125800 -0.023800 -0.991800
vn -0.127200 -0.073200 -0.989200
vn -0.127200 -0.073300 -0.989200
vn -0.128300 -0.126100 -0.983700
vn -0.128900 -0.185900 -0.974100
vn -0.128900 -0.185700 -0.974100
vn -0.128900 -0.256300 -0.958000
vn -0.128900 -0.256400 -0.957900
vn -0.127800 -0.343200 -0.930500
vn -0.124500 -0.454300 -0.882100
vn -0.124500 -0.454000 -0.882300
vn -0.116700 -0.596800 -0.793800
vn -0.099800 -0.769300 -0.631000
vn -0.068100 -0.931300 -0.357800
usemtl b0b0b0
s 1
f 1/1/1 99/2/1 106/3/2 2/4/2
f 2/4/2 106/3/2 107/5/3 105/6/3 104/7/2 26/8/2 27/9/4 3/10/4
f 3/10/4 27/9/4 28/11/5 4/12/5
f 4/12/5 28/11/5 29/13/6 5/14/6
f 5/14/6 29/13/6 30/15/7 6/16/7
f 6/16/7 30/15/7 31/17/8 7/18/8
f 7/18/8 31/17/8 32/19/9 8/20/9
f 8/20/9 32/19/9 33/21/10 9/22/10
f 9/22/10 33/21/10 34/23/11 10/24/11
f 10/24/11 34/23/11 35/25/12 11/26/12
f 11/26/12 35/25/12 36/27/13 12/28/13
f 12/28/13 36/27/13 37/29/14 13/30/14
f 13/30/14 37/29/14 38/31/15 14/32/15
f 14/32/15 38/31/15 39/33/16 15/34/16
f 15/34/16 39/33/16 40/35/17 16/36/17
f 16/36/17 40/35/17 41/37/18 17/38/18
f 17/38/18 41/37/18 42/39/19 18/40/19
f 18/40/19 42/39/19 43/41/20 19/42/20
f 19/42/20 43/41/20 44/43/21 20/44/21
f 20/44/21 44/43/21 45/45/22 21/46/22
f 21/46/22 45/45/22 46/47/23 22/48/23
f 22/48/23 46/47/23 47/49/24 23/50/24
f 23/50/24 47/49/24 48/51/25 24/52/25
f 24/52/25 48/51/25 25/53/1 103/54/1 102/55/1 100/56/1 99/57/1 1/58/1
f 75/59/26 76/8/26 49/1/26
f 76/8/26 77/9/26 49/1/26
f 77/9/26 78/11/26 49/1/26
f 78/11/26 79/13/26 49/1/26
f 79/13/26 80/15/26 49/1/26
f 80/15/26 81/17/26 49/1/26
f 81/17/26 82/19/26 49/1/26
f 82/19/26 83/21/26 49/1/26
f 83/21/26 84/23/26 49/1/26
f 84/23/26 85/25/26 49/1/26
f 85/25/26 86/27/26 49/1/26
f 86/27/26 87/29/26 49/1/26
f 87/29/26 88/31/26 49/1/26
f 88/31/26 89/33/26 49/1/26
f 89/33/26 90/35/26 49/1/26
f 90/35/26 91/37/26 49/1/26
f 91/37/26 92/39/26 49/1/26
f 92/39/26 93/41/26 49/1/26
f 93/41/26 94/43/26 49/1/26
f 94/43/26 95/45/26 49/1/26
f 95/45/26 96/47/26 49/1/26
f 96/47/26 97/49/26 49/1/26
f 97/49/26 98/51/26 101/60/26 49/1/26
f 98/51/26 75/53/26 49/1/26 101/60/26
f 26/4/27 25/1/27 50/59/27
f 27/10/27 26/4/27 50/59/27
f 28/12/27 27/10/27 50/59/27
f 29/14/27 28/12/27 50/59/27
f 30/16/27 29/14/27 50/59/27
f 31/18/27 30/16/27 50/59/27
f 32/20/27 31/18/27 50/59/27
f 33/22/27 32/20/27 50/59/27
f 34/24/27 33/22/27 50/59/27
f 35/26/27 34/24/27 50/59/27
f 36/28/27 35/26/27 50/59/27
f 37/30/27 36/28/27 50/59/27
f 38/32/27 37/30/27 50/59/27
f 39/34/27 38/32/27 50/59/27
f 40/36/27 39/34/27 50/59/27
f 41/38/27 40/36/27 50/59/27
f 42/40/27 41/38/27 50/59/27
f 43/42/27 42/40/27 50/59/27
f 44/44/27 43/42/27 50/59/27
f 45/46/27 44/44/27 50/59/27
f 46/48/27 45/46/27 50/59/27
f 47/50/27 46/48/27 50/59/27
f 48/52/27 47/50/27 50/59/27
f 25/58/27 48/52/27 50/59/27
f 1/59/26 2/59/26 51/59/26 52/59/26
f 2/59/26 3/59/26 53/59/26 51/59/26
f 3/59/26 4/59/26 54/59/26 53/59/26
f 4/59/26 5/59/26 55/59/26 54/59/26
f 5/59/26 6/59/26 56/59/26 55/59/26
f 6/59/26 7/59/26 57/59/26 56/59/26
f 7/59/26 8/59/26 58/59/26 57/59/26
f 8/59/26 9/59/26 59/59/26 58/59/26
f 9/59/26 10/59/26 60/59/26 59/59/26
f 10/59/26 11/59/26 61/59/26 60/59/26
f 11/59/26 12/59/26 62/59/26 61/59/26
f 12/59/26 13/59/26 63/59/26 62/59/26
f 13/59/26 14/59/26 64/59/26 63/59/26
f 14/59/26 15/59/26 65/59/26 64/59/26
f 15/59/26 16/59/26 66/59/26 65/59/26
f 16/59/26 17/59/26 67/59/26 66/59/26
f 17/59/26 18/59/26 68/59/26 67/59/26
f 18/59/26 19/59/26 69/59/26 68/59/26
f 19/59/26 20/59/26 70/59/26 69/59/26
f 20/59/26 21/59/26 71/59/26 70/59/26
f 21/59/26 22/59/26 72/59/26 71/59/26
f 22/59/26 23/59/26 73/59/26 72/59/26
f 23/59/26 24/59/26 74/59/26 73/59/26
f 24/59/26 1/59/26 52/59/26 74/59/26
f 52/59/28 51/59/28 76/59/28 75/59/28
f 51/59/29 53/59/29 77/59/29 76/59/29
f 53/59/30 54/59/30 78/59/30 77/59/30
f 54/59/31 55/59/31 79/59/31 78/59/31
f 55/59/32 56/59/32 80/59/32 79/59/32
f 56/59/33 57/59/33 81/59/33 80/59/33
f 57/59/34 58/59/34 82/59/34 81/59/34
f 58/59/35 59/59/35 83/59/35 82/59/35
f 59/59/36 60/59/36 84/59/36 83/59/36
f 60/59/37 61/59/37 85/59/37 84/59/37
f 61/59/38 62/59/38 86/59/38 85/59/38
f 62/59/39 63/59/39 87/59/39 86/59/39
f 63/59/40 64/59/40 88/59/40 87/59/40
f 64/59/41 65/59/41 89/59/41 88/59/41
f 65/59/42 66/59/42 90/59/42 89/59/42
f 66/59/43 67/59/43 91/59/43 90/59/43
f 67/59/44 68/59/44 92/59/44 91/59/44
f 68/59/45 69/59/45 93/59/45 92/59/45
f 69/59/46 70/59/46 94/59/46 93/59/46
f 70/59/47 71/59/47 95/59/47 94/59/47
f 71/59/48 72/59/48 96/59/48 95/59/48
f 72/59/49 73/59/49 97/59/49 96/59/49
f 73/59/50 74/59/50 98/59/50 97/59/50
f 74/59/51 52/59/51 75/59/51 98/59/51
f 100/61/1 102/62/1 105/6/3 107/5/3
f 103/63/1 25/59/1 26/8/2 104/7/2
f 99/59/52 100/59/52 108/59/52 109/59/52
f 100/59/53 107/59/53 110/59/54 108/59/55
f 107/59/56 106/59/56 111/59/56 110/59/56
f 106/59/57 99/59/57 109/59/58 111/59/59
f 102/59/52 103/59/52 112/59/52 113/59/52
f 103/59/60 104/59/60 114/59/61 112/59/62
f 104/59/56 105/59/56 115/59/56 114/59/56
f 105/59/63 102/59/63 113/59/64 115/59/65
f 113/59/52 112/59/52 116/59/52 117/59/52
f 117/59/52 116/59/52 118/59/52 119/59/52
f 119/59/52 118/59/52 120/59/52 121/59/52
f 121/59/52 120/59/52 122/59/52 123/59/52
f 123/59/52 122/59/52 124/59/52 125/59/52
f 125/59/52 124/59/52 126/59/52 127/59/52
f 127/59/52 126/59/52 128/59/52 129/59/52
f 129/59/52 128/59/52 130/59/52 131/59/52
f 131/59/52 130/59/52 132/59/52 133/59/52
f 133/59/52 132/59/52 134/59/52 135/59/52
f 135/59/52 134/59/52 136/59/52 137/59/52
f 137/59/52 136/59/52 138/59/52 139/59/52
f 139/59/52 138/59/52 140/59/52 141/59/52
f 141/59/52 140/59/52 142/59/52 143/59/52
f 143/59/52 142/59/52 144/59/52 145/59/52
f 145/59/52 144/59/52 146/59/52 147/59/52
f 147/59/52 146/59/52 148/59/52 149/59/52
f 149/59/52 148/59/52 150/59/52 151/59/52
f 151/59/52 150/59/52 152/59/52 153/59/52
f 153/59/52 152/59/52 154/59/52 155/59/52
f 155/59/52 154/59/52 109/59/52 108/59/52
f 112/59/62 114/59/61 156/59/66 116/59/66
f 116/59/66 156/59/66 157/59/67 118/59/68
f 118/59/68 157/59/67 158/59/69 120/59/69
f 120/59/69 158/59/69 159/59/70 122/59/71
f 122/59/71 159/59/70 160/59/72 124/59/73
f 124/59/73 160/59/72 161/59/74 126/59/75
f 126/59/75 161/59/74 162/59/76 128/59/77
f 128/59/77 162/59/76 163/59/78 130/59/79
f 130/59/79 163/59/78 164/59/80 132/59/81
f 132/59/81 164/59/80 165/59/82 134/59/82
f 134/59/82 165/59/82 166/59/83 136/59/84
f 136/59/84 166/59/83 167/59/85 138/59/86
f 138/59/86 167/59/85 168/59/87 140/59/87
f 140/59/87 168/59/87 169/59/88 142/59/89
f 142/59/89 169/59/88 170/59/90 144/59/90
f 144/59/90 170/59/90 171/59/91 146/59/91
f 146/59/91 171/59/91 172/59/92 148/59/93
f 148/59/93 172/59/92 173/59/94 150/59/94
f 150/59/94 173/59/94 174/59/95 152/59/96
f 152/59/96 174/59/95 175/59/97 154/59/98
f 154/59/98 175/59/97 111/59/59 109/59/58
f 114/59/56 115/59/56 176/59/56 156/59/56
f 156/59/56 176/59/56 177/59/56 157/59/56
f 157/59/56 177/59/56 178/59/56 158/59/56
f 158/59/56 178/59/56 179/59/56 159/59/56
f 159/59/56 179/59/56 180/59/56 160/59/56
f 160/59/56 180/59/56 181/59/56 161/59/56
f 161/59/56 181/59/56 182/59/56 162/59/56
f 162/59/56 182/59/56 183/59/56 163/59/56
f 163/59/56 183/59/56 184/59/56 164/59/56
f 164/59/56 184/59/56 185/59/56 165/59/56
f 165/59/56 185/59/56 186/59/56 166/59/56
f 166/59/56 186/59/56 187/59/56 167/59/56
f 167/59/56 187/59/56 188/59/56 168/59/56
f 168/59/56 188/59/56 189/59/56 169/59/56
f 169/59/56 189/59/56 190/59/56 170/59/56
f 170/59/56 190/59/56 191/59/56 171/59/56
f 171/59/56 191/59/56 192/59/56 172/59/56
f 172/59/56 192/59/56 193/59/56 173/59/56
f 173/59/56 193/59/56 194/59/56 174/59/56
f 174/59/56 194/59/56 195/59/56 175/59/56
f 175/59/56 195/59/56 110/59/56 111/59/56
f 115/59/65 113/59/64 117/59/99 176/59/100
f 176/59/100 117/59/99 119/59/101 177/59/101
f 177/59/101 119/59/101 121/59/102 178/59/102
f 178/59/102 121/59/102 123/59/103 179/59/104
f 179/59/104 123/59/103 125/59/105 180/59/106
f 180/59/106 125/59/105 127/59/107 181/59/107
f 181/59/107 127/59/107 129/59/108 182/59/109
f 182/59/109 129/59/108 131/59/110 183/59/111
f 183/59/111 131/59/110 133/59/112 184/59/113
f 184/59/113 133/59/112 135/59/114 185/59/115
f 185/59/115 135/59/114 137/59/116 186/59/117
f 186/59/117 137/59/116 139/59/118 187/59/119
f 187/59/119 139/59/118 141/59/120 188/59/120
f 188/59/120 141/59/120 143/59/121 189/59/122
f 189/59/122 143/59/121 145/59/123 190/59/124
f 190/59/124 145/59/123 147/59/125 191/59/125
f 191/59/125 147/59/125 149/59/126 192/59/127
f 192/59/127 149/59/126 151/59/128 193/59/128
f 193/59/128 151/59/128 153/59/129 194/59/129
f 194/59/129 153/59/129 155/59/130 195/59/130
f 195/59/130 155/59/130 108/59/55 110/59/54
